<?xml version="1.0" encoding="iso-8859-1"?>
<!-- Generator: Adobe Illustrator 19.1.0, SVG Export Plug-In . SVG Version: 6.00 Build 0)  -->
<svg version="1.1" id="Capa_1" xmlns="http://www.w3.org/2000/svg" xmlns:xlink="http://www.w3.org/1999/xlink" x="0px" y="0px"
	 viewBox="0 0 310.229 310.229" style="enable-background:new 0 0 310.229 310.229;" xml:space="preserve">
<g>
	<g>
		<path style="fill:#fff" d="M232.045,304.362c-4.729,0-9.282-1.165-13.57-3.441l-59.66-31.974
			c-2.947-1.553-6.67-1.623-9.688-0.071L88.973,299.88c-11.929,6.141-26.786,2.982-35.256-7.164
			c-5.417-6.494-7.676-15.017-6.158-23.416l11.981-66.613c0.6-3.37-0.494-6.829-2.929-9.246L8.526,145.798
			c-7.817-7.746-10.517-19.04-7.023-29.486c3.476-10.446,12.423-17.857,23.328-19.357l67.054-9.193
			c3.388-0.459,6.352-2.576,7.888-5.629l30.439-60.454c4.906-9.758,14.734-15.811,25.622-15.811
			c11.117,0,21.016,6.211,25.851,16.216l29.468,60.931c1.482,3.088,4.411,5.223,7.799,5.753l66.913,10.287
			c10.87,1.659,19.693,9.211,23.01,19.71s0.441,21.757-7.499,29.38l-48.843,46.849c-2.47,2.365-3.617,5.805-3.07,9.193
			l10.905,66.807c1.376,8.452-0.882,16.675-6.37,23.151C248.473,300.639,240.479,304.362,232.045,304.362z M153.909,249.413
			c4.711,0,9.405,1.182,13.57,3.406l59.66,31.974c4.411,2.329,9.776,1.182,12.934-2.506c1.394-1.641,2.912-4.411,2.259-8.364
			l-10.905-66.807c-1.518-9.335,1.641-18.793,8.452-25.339l48.843-46.849c2.929-2.806,3.953-6.794,2.717-10.658
			c-1.218-3.864-4.341-6.547-8.346-7.164l-66.913-10.27c-9.352-1.429-17.381-7.376-21.492-15.864L165.22,30.042
			c-3.529-7.27-15.016-7.376-18.687-0.159l-30.439,60.472c-4.235,8.435-12.37,14.24-21.722,15.528l-67.054,9.193
			c-4.023,0.547-7.199,3.194-8.47,7.041c-1.288,3.829-0.335,7.835,2.559,10.676l48.085,47.626
			c6.723,6.652,9.723,16.163,8.064,25.463l-11.981,66.63c-0.723,3.97,0.794,6.794,2.17,8.435c3.088,3.723,8.417,4.941,12.846,2.647
			l60.154-31.004C144.804,250.525,149.357,249.413,153.909,249.413z"/>
	</g>
	<g>
	</g>
	<g>
	</g>
	<g>
	</g>
	<g>
	</g>
	<g>
	</g>
	<g>
	</g>
	<g>
	</g>
	<g>
	</g>
	<g>
	</g>
	<g>
	</g>
	<g>
	</g>
	<g>
	</g>
	<g>
	</g>
	<g>
	</g>
	<g>
	</g>
</g>
<g>
</g>
<g>
</g>
<g>
</g>
<g>
</g>
<g>
</g>
<g>
</g>
<g>
</g>
<g>
</g>
<g>
</g>
<g>
</g>
<g>
</g>
<g>
</g>
<g>
</g>
<g>
</g>
<g>
</g>
</svg>
